<?xml version="1.0" standalone="no"?>
<!DOCTYPE svg PUBLIC "-//W3C//DTD SVG 20010904//EN"
 "http://www.w3.org/TR/2001/REC-SVG-20010904/DTD/svg10.dtd">
<svg version="1.0" xmlns="http://www.w3.org/2000/svg"
 width="360.000000pt" height="360.000000pt" viewBox="0 0 360.000000 360.000000"
 preserveAspectRatio="xMidYMid meet">

<g transform="translate(0.000000,360.000000) scale(0.100000,-0.100000)"
fill="#000000" stroke="none">
<path d="M1062 2567 l-22 -23 0 -567 0 -567 -60 0 c-62 0 -80 -13 -80 -56 0
-17 212 -321 234 -336 6 -4 16 -8 23 -8 6 0 63 73 127 163 146 204 151 237 34
237 l-58 0 0 570 0 569 -22 21 c-17 16 -35 20 -88 20 -57 0 -70 -3 -88 -23z"/>
<path d="M1549 2577 c-55 -42 -51 -149 8 -176 16 -8 188 -11 559 -11 l535 0
24 25 c20 19 25 34 25 75 0 41 -5 56 -25 75 l-24 25 -543 0 c-411 -1 -547 -4
-559 -13z"/>
<path d="M1554 2118 c-60 -28 -58 -149 3 -177 16 -7 163 -11 464 -11 l440 0
24 25 c36 35 36 115 0 150 l-24 25 -443 -1 c-283 0 -451 -4 -464 -11z"/>
<path d="M1554 1658 c-60 -28 -58 -149 3 -177 16 -7 133 -11 352 -11 317 0
329 1 355 21 23 18 26 28 26 79 0 51 -3 61 -26 79 -26 20 -37 21 -358 20 -206
0 -339 -4 -352 -11z"/>
<path d="M1554 1198 c-56 -27 -59 -134 -5 -175 12 -9 81 -12 244 -13 l228 0
24 25 c20 19 25 34 25 75 0 41 -5 56 -25 75 l-24 25 -223 -1 c-132 0 -232 -5
-244 -11z"/>
</g>
</svg>
